<?xml version="1.0" encoding="UTF-8" standalone="no"?>
<!DOCTYPE svg PUBLIC "-//W3C//DTD SVG 1.1//EN"
 "http://www.w3.org/Graphics/SVG/1.1/DTD/svg11.dtd">
<!-- Generated by graphviz version 2.40.1 (20161225.0304)
 -->
<!-- Title: state transitions Pages: 1 -->
<svg width="180pt" height="516pt"
 viewBox="0.00 0.00 180.00 516.00" xmlns="http://www.w3.org/2000/svg" xmlns:xlink="http://www.w3.org/1999/xlink">
<g id="graph0" class="graph" transform="scale(1 1) rotate(0) translate(4 512)">
<title>state transitions</title>
<polygon fill="#ffffff" stroke="transparent" points="-4,4 -4,-512 176,-512 176,4 -4,4"/>
<g id="clust1" class="cluster state regular">
<title>cluster_state</title>
<path fill="none" stroke="#000000" stroke-width="2" d="M20,-8C20,-8 152,-8 152,-8 158,-8 164,-14 164,-20 164,-20 164,-488 164,-488 164,-494 158,-500 152,-500 152,-500 20,-500 20,-500 14,-500 8,-494 8,-488 8,-488 8,-20 8,-20 8,-14 14,-8 20,-8"/>
<text text-anchor="start" x="72.9944" y="-481.2" font-family="Helvetica,sans-Serif" font-size="12.00" fill="#000000">state</text>
</g>
<!-- state -->
<!-- IDLE -->
<g id="node2" class="node state regular">
<title>IDLE</title>
<polygon fill="#ffffff" fill-opacity="0.003922" stroke="transparent" stroke-width="2" points="119,-462 63,-462 63,-426 119,-426 119,-462"/>
<text text-anchor="start" x="77.6644" y="-440.2" font-family="Helvetica,sans-Serif" font-size="12.00" fill="#000000">IDLE</text>
<path fill="none" stroke="#000000" stroke-width="2" d="M75.3333,-427C75.3333,-427 106.6667,-427 106.6667,-427 112.3333,-427 118,-432.6667 118,-438.3333 118,-438.3333 118,-449.6667 118,-449.6667 118,-455.3333 112.3333,-461 106.6667,-461 106.6667,-461 75.3333,-461 75.3333,-461 69.6667,-461 64,-455.3333 64,-449.6667 64,-449.6667 64,-438.3333 64,-438.3333 64,-432.6667 69.6667,-427 75.3333,-427"/>
</g>
<!-- START_BIT -->
<g id="node3" class="node state regular">
<title>START_BIT</title>
<polygon fill="#ffffff" fill-opacity="0.003922" stroke="transparent" stroke-width="2" points="123,-380 37,-380 37,-344 123,-344 123,-380"/>
<text text-anchor="start" x="47.6654" y="-358.2" font-family="Helvetica,sans-Serif" font-size="12.00" fill="#000000">START_BIT</text>
<path fill="none" stroke="#000000" stroke-width="2" d="M49.3333,-345C49.3333,-345 110.6667,-345 110.6667,-345 116.3333,-345 122,-350.6667 122,-356.3333 122,-356.3333 122,-367.6667 122,-367.6667 122,-373.3333 116.3333,-379 110.6667,-379 110.6667,-379 49.3333,-379 49.3333,-379 43.6667,-379 38,-373.3333 38,-367.6667 38,-367.6667 38,-356.3333 38,-356.3333 38,-350.6667 43.6667,-345 49.3333,-345"/>
</g>
<!-- IDLE&#45;&gt;START_BIT -->
<g id="edge1" class="edge transition">
<title>IDLE&#45;&gt;START_BIT</title>
<path fill="none" stroke="#000000" d="M88.5587,-425.8015C87.1631,-415.3976 85.3822,-402.1215 83.8066,-390.3768"/>
<polygon fill="#000000" stroke="#000000" points="87.233,-389.5934 82.4344,-380.1476 80.2951,-390.5242 87.233,-389.5934"/>
<text text-anchor="start" x="86" y="-400" font-family="Helvetica,sans-Serif" font-size="10.00" fill="#000000">tx_start &#160;&#160;</text>
</g>
<!-- DATA_BITS -->
<g id="node4" class="node state regular">
<title>DATA_BITS</title>
<polygon fill="#ffffff" fill-opacity="0.003922" stroke="transparent" stroke-width="2" points="116.5,-298 29.5,-298 29.5,-262 116.5,-262 116.5,-298"/>
<text text-anchor="start" x="40.8294" y="-276.2" font-family="Helvetica,sans-Serif" font-size="12.00" fill="#000000">DATA_BITS</text>
<path fill="none" stroke="#000000" stroke-width="2" d="M41.8333,-263C41.8333,-263 104.1667,-263 104.1667,-263 109.8333,-263 115.5,-268.6667 115.5,-274.3333 115.5,-274.3333 115.5,-285.6667 115.5,-285.6667 115.5,-291.3333 109.8333,-297 104.1667,-297 104.1667,-297 41.8333,-297 41.8333,-297 36.1667,-297 30.5,-291.3333 30.5,-285.6667 30.5,-285.6667 30.5,-274.3333 30.5,-274.3333 30.5,-268.6667 36.1667,-263 41.8333,-263"/>
</g>
<!-- START_BIT&#45;&gt;DATA_BITS -->
<g id="edge2" class="edge transition">
<title>START_BIT&#45;&gt;DATA_BITS</title>
<path fill="none" stroke="#000000" d="M78.4465,-343.8015C77.5583,-333.3976 76.425,-320.1215 75.4224,-308.3768"/>
<polygon fill="#000000" stroke="#000000" points="78.8872,-307.8136 74.5492,-298.1476 71.9125,-308.4091 78.8872,-307.8136"/>
<text text-anchor="middle" x="77.3895" y="-318" font-family="Helvetica,sans-Serif" font-size="10.00" fill="#000000"> </text>
</g>
<!-- PARITY_BIT -->
<g id="node5" class="node state regular">
<title>PARITY_BIT</title>
<polygon fill="#ffffff" fill-opacity="0.003922" stroke="transparent" stroke-width="2" points="118,-216 28,-216 28,-180 118,-180 118,-216"/>
<text text-anchor="start" x="38.662" y="-194.2" font-family="Helvetica,sans-Serif" font-size="12.00" fill="#000000">PARITY_BIT</text>
<path fill="none" stroke="#000000" stroke-width="2" d="M40.3333,-181C40.3333,-181 105.6667,-181 105.6667,-181 111.3333,-181 117,-186.6667 117,-192.3333 117,-192.3333 117,-203.6667 117,-203.6667 117,-209.3333 111.3333,-215 105.6667,-215 105.6667,-215 40.3333,-215 40.3333,-215 34.6667,-215 29,-209.3333 29,-203.6667 29,-203.6667 29,-192.3333 29,-192.3333 29,-186.6667 34.6667,-181 40.3333,-181"/>
</g>
<!-- DATA_BITS&#45;&gt;PARITY_BIT -->
<g id="edge3" class="edge transition">
<title>DATA_BITS&#45;&gt;PARITY_BIT</title>
<path fill="none" stroke="#000000" d="M61.4675,-261.7612C58.7553,-256.545 56.2502,-250.7186 54.856,-245 53.3061,-238.6426 54.2116,-231.9871 56.2698,-225.7505"/>
<polygon fill="#000000" stroke="#000000" points="59.5551,-226.9693 60.2656,-216.3983 53.118,-224.2189 59.5551,-226.9693"/>
<text text-anchor="start" x="54" y="-236" font-family="Helvetica,sans-Serif" font-size="10.00" fill="#000000">bit_index == 7 &#160;&#160;</text>
</g>
<!-- STOP_BIT -->
<g id="node6" class="node state regular">
<title>STOP_BIT</title>
<polygon fill="#ffffff" fill-opacity="0.003922" stroke="transparent" stroke-width="2" points="122,-134 42,-134 42,-98 122,-98 122,-134"/>
<text text-anchor="start" x="52.9948" y="-112.2" font-family="Helvetica,sans-Serif" font-size="12.00" fill="#000000">STOP_BIT</text>
<path fill="none" stroke="#000000" stroke-width="2" d="M54.3333,-99C54.3333,-99 109.6667,-99 109.6667,-99 115.3333,-99 121,-104.6667 121,-110.3333 121,-110.3333 121,-121.6667 121,-121.6667 121,-127.3333 115.3333,-133 109.6667,-133 109.6667,-133 54.3333,-133 54.3333,-133 48.6667,-133 43,-127.3333 43,-121.6667 43,-121.6667 43,-110.3333 43,-110.3333 43,-104.6667 48.6667,-99 54.3333,-99"/>
</g>
<!-- PARITY_BIT&#45;&gt;STOP_BIT -->
<g id="edge4" class="edge transition">
<title>PARITY_BIT&#45;&gt;STOP_BIT</title>
<path fill="none" stroke="#000000" d="M74.9974,-179.8015C76.1393,-169.3976 77.5964,-156.1215 78.8855,-144.3768"/>
<polygon fill="#000000" stroke="#000000" points="82.3962,-144.4698 80.0082,-134.1476 75.438,-143.706 82.3962,-144.4698"/>
<text text-anchor="middle" x="79.3895" y="-154" font-family="Helvetica,sans-Serif" font-size="10.00" fill="#000000"> </text>
</g>
<!-- CLEANUP -->
<g id="node7" class="node state regular">
<title>CLEANUP</title>
<polygon fill="#ffffff" fill-opacity="0.003922" stroke="transparent" stroke-width="2" points="139,-52 61,-52 61,-16 139,-16 139,-52"/>
<text text-anchor="start" x="71.6662" y="-30.2" font-family="Helvetica,sans-Serif" font-size="12.00" fill="#000000">CLEANUP</text>
<path fill="none" stroke="#000000" stroke-width="2" d="M73.3333,-17C73.3333,-17 126.6667,-17 126.6667,-17 132.3333,-17 138,-22.6667 138,-28.3333 138,-28.3333 138,-39.6667 138,-39.6667 138,-45.3333 132.3333,-51 126.6667,-51 126.6667,-51 73.3333,-51 73.3333,-51 67.6667,-51 62,-45.3333 62,-39.6667 62,-39.6667 62,-28.3333 62,-28.3333 62,-22.6667 67.6667,-17 73.3333,-17"/>
</g>
<!-- STOP_BIT&#45;&gt;CLEANUP -->
<g id="edge5" class="edge transition">
<title>STOP_BIT&#45;&gt;CLEANUP</title>
<path fill="none" stroke="#000000" d="M85.9948,-97.8015C88.3019,-87.2915 91.2524,-73.8503 93.8498,-62.0177"/>
<polygon fill="#000000" stroke="#000000" points="97.2908,-62.6655 96.0164,-52.1476 90.4536,-61.1646 97.2908,-62.6655"/>
<text text-anchor="middle" x="93.3895" y="-72" font-family="Helvetica,sans-Serif" font-size="10.00" fill="#000000"> </text>
</g>
<!-- CLEANUP&#45;&gt;IDLE -->
<g id="edge6" class="edge transition">
<title>CLEANUP&#45;&gt;IDLE</title>
<path fill="none" stroke="#000000" d="M139.0749,-50.9923C147.0187,-57.0856 153,-64.9954 153,-75 153,-403 153,-403 153,-403 153,-410.1983 141.2253,-418.9092 127.9386,-426.4472"/>
<polygon fill="#000000" stroke="#000000" points="126.2457,-423.3836 119.0975,-431.2037 129.5622,-429.5481 126.2457,-423.3836"/>
<text text-anchor="middle" x="154.3895" y="-236" font-family="Helvetica,sans-Serif" font-size="10.00" fill="#000000"> </text>
</g>
</g>
</svg>
