<?xml version="1.0" encoding="UTF-8" standalone="no"?>
<!DOCTYPE svg PUBLIC "-//W3C//DTD SVG 1.1//EN"
 "http://www.w3.org/Graphics/SVG/1.1/DTD/svg11.dtd">
<!-- Generated by graphviz version 2.40.1 (20161225.0304)
 -->
<!-- Title: state transitions Pages: 1 -->
<svg width="262pt" height="552pt"
 viewBox="0.00 0.00 262.00 552.00" xmlns="http://www.w3.org/2000/svg" xmlns:xlink="http://www.w3.org/1999/xlink">
<g id="graph0" class="graph" transform="scale(1 1) rotate(0) translate(4 548)">
<title>state transitions</title>
<polygon fill="#ffffff" stroke="transparent" points="-4,4 -4,-548 258,-548 258,4 -4,4"/>
<g id="clust1" class="cluster state regular">
<title>cluster_state</title>
<path fill="none" stroke="#000000" stroke-width="2" d="M20,-8C20,-8 234,-8 234,-8 240,-8 246,-14 246,-20 246,-20 246,-524 246,-524 246,-530 240,-536 234,-536 234,-536 20,-536 20,-536 14,-536 8,-530 8,-524 8,-524 8,-20 8,-20 8,-14 14,-8 20,-8"/>
<text text-anchor="start" x="113.9944" y="-517.2" font-family="Helvetica,sans-Serif" font-size="12.00" fill="#000000">state</text>
</g>
<!-- state -->
<!-- IDLE -->
<g id="node2" class="node state regular">
<title>IDLE</title>
<polygon fill="#ffffff" fill-opacity="0.003922" stroke="transparent" stroke-width="2" points="149,-498 93,-498 93,-462 149,-462 149,-498"/>
<text text-anchor="start" x="107.6644" y="-476.2" font-family="Helvetica,sans-Serif" font-size="12.00" fill="#000000">IDLE</text>
<path fill="none" stroke="#000000" stroke-width="2" d="M105.3333,-463C105.3333,-463 136.6667,-463 136.6667,-463 142.3333,-463 148,-468.6667 148,-474.3333 148,-474.3333 148,-485.6667 148,-485.6667 148,-491.3333 142.3333,-497 136.6667,-497 136.6667,-497 105.3333,-497 105.3333,-497 99.6667,-497 94,-491.3333 94,-485.6667 94,-485.6667 94,-474.3333 94,-474.3333 94,-468.6667 99.6667,-463 105.3333,-463"/>
</g>
<!-- START -->
<g id="node3" class="node state regular">
<title>START</title>
<polygon fill="#ffffff" fill-opacity="0.003922" stroke="transparent" stroke-width="2" points="122.5,-404 61.5,-404 61.5,-368 122.5,-368 122.5,-404"/>
<text text-anchor="start" x="72.835" y="-382.2" font-family="Helvetica,sans-Serif" font-size="12.00" fill="#000000">START</text>
<path fill="none" stroke="#000000" stroke-width="2" d="M73.8333,-369C73.8333,-369 110.1667,-369 110.1667,-369 115.8333,-369 121.5,-374.6667 121.5,-380.3333 121.5,-380.3333 121.5,-391.6667 121.5,-391.6667 121.5,-397.3333 115.8333,-403 110.1667,-403 110.1667,-403 73.8333,-403 73.8333,-403 68.1667,-403 62.5,-397.3333 62.5,-391.6667 62.5,-391.6667 62.5,-380.3333 62.5,-380.3333 62.5,-374.6667 68.1667,-369 73.8333,-369"/>
</g>
<!-- IDLE&#45;&gt;START -->
<g id="edge1" class="edge transition">
<title>IDLE&#45;&gt;START</title>
<path fill="none" stroke="#000000" d="M92.877,-472.7221C78.749,-467.4884 62.8948,-458.8441 54.539,-445 49.0271,-435.8678 50.2904,-430.784 54.539,-421 55.9283,-417.8007 57.77,-414.7608 59.8931,-411.9063"/>
<polygon fill="#000000" stroke="#000000" points="62.5312,-414.2065 66.4796,-404.3749 57.2619,-409.5984 62.5312,-414.2065"/>
<text text-anchor="start" x="54" y="-430" font-family="Helvetica,sans-Serif" font-size="10.00" fill="#000000">rx == 0 &#160;&#160;</text>
</g>
<!-- START&#45;&gt;IDLE -->
<g id="edge3" class="edge transition">
<title>START&#45;&gt;IDLE</title>
<path fill="none" stroke="#000000" d="M97.5743,-404.0685C101.7824,-417.7084 107.6319,-436.6688 112.4328,-452.2305"/>
<polygon fill="#000000" stroke="#000000" points="109.116,-453.3521 115.4085,-461.8759 115.8049,-451.2884 109.116,-453.3521"/>
<text text-anchor="start" x="110" y="-436" font-family="Helvetica,sans-Serif" font-size="10.00" fill="#000000">not (rx == 0) &#160;&#160;</text>
<text text-anchor="start" x="110" y="-424" font-family="Helvetica,sans-Serif" font-size="10.00" fill="#000000">sample_count == 7 &#160;&#160;</text>
</g>
<!-- DATA -->
<g id="node4" class="node state regular">
<title>DATA</title>
<polygon fill="#ffffff" fill-opacity="0.003922" stroke="transparent" stroke-width="2" points="120,-310 64,-310 64,-274 120,-274 120,-310"/>
<text text-anchor="start" x="76.0004" y="-288.2" font-family="Helvetica,sans-Serif" font-size="12.00" fill="#000000">DATA</text>
<path fill="none" stroke="#000000" stroke-width="2" d="M76.3333,-275C76.3333,-275 107.6667,-275 107.6667,-275 113.3333,-275 119,-280.6667 119,-286.3333 119,-286.3333 119,-297.6667 119,-297.6667 119,-303.3333 113.3333,-309 107.6667,-309 107.6667,-309 76.3333,-309 76.3333,-309 70.6667,-309 65,-303.3333 65,-297.6667 65,-297.6667 65,-286.3333 65,-286.3333 65,-280.6667 70.6667,-275 76.3333,-275"/>
</g>
<!-- START&#45;&gt;DATA -->
<g id="edge2" class="edge transition">
<title>START&#45;&gt;DATA</title>
<path fill="none" stroke="#000000" d="M92,-367.8759C92,-354.3516 92,-335.6192 92,-320.1514"/>
<polygon fill="#000000" stroke="#000000" points="95.5001,-320.0685 92,-310.0685 88.5001,-320.0685 95.5001,-320.0685"/>
<text text-anchor="start" x="92" y="-342" font-family="Helvetica,sans-Serif" font-size="10.00" fill="#000000">rx == 0 &#160;&#160;</text>
<text text-anchor="start" x="92" y="-330" font-family="Helvetica,sans-Serif" font-size="10.00" fill="#000000">sample_count == 7 &#160;&#160;</text>
</g>
<!-- PARITY -->
<g id="node5" class="node state regular">
<title>PARITY</title>
<polygon fill="#ffffff" fill-opacity="0.003922" stroke="transparent" stroke-width="2" points="126.5,-216 61.5,-216 61.5,-180 126.5,-180 126.5,-216"/>
<text text-anchor="start" x="72.8316" y="-194.2" font-family="Helvetica,sans-Serif" font-size="12.00" fill="#000000">PARITY</text>
<path fill="none" stroke="#000000" stroke-width="2" d="M73.8333,-181C73.8333,-181 114.1667,-181 114.1667,-181 119.8333,-181 125.5,-186.6667 125.5,-192.3333 125.5,-192.3333 125.5,-203.6667 125.5,-203.6667 125.5,-209.3333 119.8333,-215 114.1667,-215 114.1667,-215 73.8333,-215 73.8333,-215 68.1667,-215 62.5,-209.3333 62.5,-203.6667 62.5,-203.6667 62.5,-192.3333 62.5,-192.3333 62.5,-186.6667 68.1667,-181 73.8333,-181"/>
</g>
<!-- DATA&#45;&gt;PARITY -->
<g id="edge4" class="edge transition">
<title>DATA&#45;&gt;PARITY</title>
<path fill="none" stroke="#000000" d="M92.3856,-273.8759C92.6734,-260.3516 93.0719,-241.6192 93.401,-226.1514"/>
<polygon fill="#000000" stroke="#000000" points="96.902,-226.1407 93.6156,-216.0685 89.9035,-225.9918 96.902,-226.1407"/>
<text text-anchor="start" x="93" y="-248" font-family="Helvetica,sans-Serif" font-size="10.00" fill="#000000">bit_index == 7 &#160;&#160;</text>
<text text-anchor="start" x="93" y="-236" font-family="Helvetica,sans-Serif" font-size="10.00" fill="#000000">sample_count == 15 &#160;&#160;</text>
</g>
<!-- STOP -->
<g id="node6" class="node state regular">
<title>STOP</title>
<polygon fill="#ffffff" fill-opacity="0.003922" stroke="transparent" stroke-width="2" points="133,-134 77,-134 77,-98 133,-98 133,-134"/>
<text text-anchor="start" x="88.6644" y="-112.2" font-family="Helvetica,sans-Serif" font-size="12.00" fill="#000000">STOP</text>
<path fill="none" stroke="#000000" stroke-width="2" d="M89.3333,-99C89.3333,-99 120.6667,-99 120.6667,-99 126.3333,-99 132,-104.6667 132,-110.3333 132,-110.3333 132,-121.6667 132,-121.6667 132,-127.3333 126.3333,-133 120.6667,-133 120.6667,-133 89.3333,-133 89.3333,-133 83.6667,-133 78,-127.3333 78,-121.6667 78,-121.6667 78,-110.3333 78,-110.3333 78,-104.6667 83.6667,-99 89.3333,-99"/>
</g>
<!-- PARITY&#45;&gt;STOP -->
<g id="edge5" class="edge transition">
<title>PARITY&#45;&gt;STOP</title>
<path fill="none" stroke="#000000" d="M96.4413,-179.8015C97.8369,-169.3976 99.6178,-156.1215 101.1934,-144.3768"/>
<polygon fill="#000000" stroke="#000000" points="104.7049,-144.5242 102.5656,-134.1476 97.767,-143.5934 104.7049,-144.5242"/>
<text text-anchor="start" x="100" y="-154" font-family="Helvetica,sans-Serif" font-size="10.00" fill="#000000">sample_count == 15 &#160;&#160;</text>
</g>
<!-- DONE -->
<g id="node7" class="node state regular">
<title>DONE</title>
<polygon fill="#ffffff" fill-opacity="0.003922" stroke="transparent" stroke-width="2" points="187,-52 131,-52 131,-16 187,-16 187,-52"/>
<text text-anchor="start" x="141.6684" y="-30.2" font-family="Helvetica,sans-Serif" font-size="12.00" fill="#000000">DONE</text>
<path fill="none" stroke="#000000" stroke-width="2" d="M143.3333,-17C143.3333,-17 174.6667,-17 174.6667,-17 180.3333,-17 186,-22.6667 186,-28.3333 186,-28.3333 186,-39.6667 186,-39.6667 186,-45.3333 180.3333,-51 174.6667,-51 174.6667,-51 143.3333,-51 143.3333,-51 137.6667,-51 132,-45.3333 132,-39.6667 132,-39.6667 132,-28.3333 132,-28.3333 132,-22.6667 137.6667,-17 143.3333,-17"/>
</g>
<!-- STOP&#45;&gt;DONE -->
<g id="edge6" class="edge transition">
<title>STOP&#45;&gt;DONE</title>
<path fill="none" stroke="#000000" d="M113.7047,-97.6546C118.1935,-88.7594 123.9943,-78.0654 130.069,-69 132.015,-66.0959 134.155,-63.1477 136.3632,-60.2578"/>
<polygon fill="#000000" stroke="#000000" points="139.1677,-62.3546 142.6632,-52.3531 133.6936,-57.9918 139.1677,-62.3546"/>
<text text-anchor="start" x="130" y="-72" font-family="Helvetica,sans-Serif" font-size="10.00" fill="#000000">sample_count == 15 &#160;&#160;</text>
</g>
<!-- DONE&#45;&gt;IDLE -->
<g id="edge7" class="edge transition">
<title>DONE&#45;&gt;IDLE</title>
<path fill="none" stroke="#000000" d="M187.2996,-37.7003C208.9075,-42.3009 235,-52.512 235,-75 235,-339 235,-339 235,-339 235,-387.6154 240.0146,-408.4142 208,-445 195.4528,-459.3388 176.1955,-467.8821 158.9855,-472.9322"/>
<polygon fill="#000000" stroke="#000000" points="157.9351,-469.5894 149.1552,-475.5193 159.7168,-476.3589 157.9351,-469.5894"/>
<text text-anchor="middle" x="236.3895" y="-242" font-family="Helvetica,sans-Serif" font-size="10.00" fill="#000000"> </text>
</g>
</g>
</svg>
